<svg xmlns="http://www.w3.org/2000/svg" width="1200" height="850" viewBox="0 0 1200 850" role="img" aria-labelledby="title desc">
  <title id="title">Android Auto phone illustration</title><desc id="desc">A phone with Android Auto navigation and assistant icons next to a car dashboard.</desc>
  <defs><linearGradient id="bg" x1="0" x2="1" y1="0" y2="1"><stop stop-color="#ecfdf5"/><stop offset="1" stop-color="#fffdf8"/></linearGradient><linearGradient id="nav" x1="0" x2="1"><stop stop-color="#22c55e"/><stop offset="1" stop-color="#4f46e5"/></linearGradient><filter id="shadow" x="-20%" y="-20%" width="140%" height="140%"><feDropShadow dx="0" dy="28" stdDeviation="34" flood-color="#11111a" flood-opacity=".24"/></filter></defs>
  <rect width="1200" height="850" rx="58" fill="url(#bg)"/>
  <path d="M116 580c186-104 363-155 532-153 170 2 315 52 436 153v150H116z" fill="#111827" opacity=".08"/>
  <g filter="url(#shadow)"><rect x="164" y="230" width="540" height="360" rx="54" fill="#111827"/><rect x="214" y="278" width="440" height="264" rx="34" fill="#0f172a"/><path d="M260 500c86-142 168-160 246-56 43 57 75 63 96 20" stroke="url(#nav)" stroke-width="34" stroke-linecap="round" fill="none"/><circle cx="340" cy="420" r="30" fill="#22c55e"/><circle cx="548" cy="394" r="30" fill="#4f46e5"/></g>
  <g filter="url(#shadow)"><rect x="760" y="120" width="258" height="610" rx="52" fill="#111827"/><rect x="786" y="170" width="206" height="508" rx="34" fill="#020617"/><path d="M890 250l31 86 90 30-90 31-31 86-30-86-90-31 90-30 30-86z" fill="#38bdf8"/><text x="818" y="512" fill="#fffdf8" font-family="Inter, Arial, sans-serif" font-size="27" font-weight="850">Android Auto</text><circle cx="850" cy="610" r="22" fill="#1f2937"/><circle cx="930" cy="610" r="22" fill="#1f2937"/></g>
</svg>
