<svg xmlns="http://www.w3.org/2000/svg" width="1200" height="850" viewBox="0 0 1200 850" role="img" aria-labelledby="title desc">
  <title id="title">CarPlay screen illustration</title><desc id="desc">A bright Apple CarPlay style dashboard with ChatGPT app tile.</desc>
  <defs><linearGradient id="bg" x1="0" x2="1" y1="0" y2="1"><stop stop-color="#eff6ff"/><stop offset="1" stop-color="#fffdf8"/></linearGradient><linearGradient id="tile" x1="0" x2="1"><stop stop-color="#10b981"/><stop offset="1" stop-color="#2563eb"/></linearGradient><filter id="shadow" x="-20%" y="-20%" width="140%" height="140%"><feDropShadow dx="0" dy="28" stdDeviation="34" flood-color="#11111a" flood-opacity=".22"/></filter></defs>
  <rect width="1200" height="850" rx="58" fill="url(#bg)"/>
  <g filter="url(#shadow)"><rect x="110" y="168" width="980" height="560" rx="70" fill="#111827"/><rect x="170" y="222" width="860" height="452" rx="42" fill="#f8fafc"/></g>
  <g transform="translate(226 276)"><rect width="112" height="112" rx="28" fill="#22c55e"/><rect x="148" width="112" height="112" rx="28" fill="#3b82f6"/><rect x="296" width="112" height="112" rx="28" fill="#ef4444"/><rect x="444" width="112" height="112" rx="28" fill="#f97316"/><rect y="148" width="112" height="112" rx="28" fill="#a855f7"/><rect x="148" y="148" width="112" height="112" rx="28" fill="url(#tile)"/><rect x="296" y="148" width="112" height="112" rx="28" fill="#f59e0b"/><rect x="444" y="148" width="112" height="112" rx="28" fill="#06b6d4"/></g>
  <g transform="translate(710 292)"><rect width="250" height="245" rx="38" fill="#0f172a"/><path d="M126 48c58 0 102 39 102 91s-44 91-102 91S24 191 24 139s44-91 102-91z" fill="#fff" opacity=".1"/><path d="M126 74c40 0 72 29 72 65s-32 65-72 65-72-29-72-65 32-65 72-65z" fill="none" stroke="#fff" stroke-width="16"/><path d="M126 74c40 0 72 29 72 65 0 21-11 40-28 52" fill="none" stroke="#10b981" stroke-width="16" stroke-linecap="round"/><text x="63" y="222" fill="#fff" font-family="Inter, Arial, sans-serif" font-size="26" font-weight="800">ChatGPT</text></g>
  <text x="228" y="616" fill="#111827" font-family="Inter, Arial, sans-serif" font-size="34" font-weight="900">CarPlay assistant setup</text>
</svg>
