<svg xmlns="http://www.w3.org/2000/svg" width="1200" height="850" viewBox="0 0 1200 850" role="img" aria-labelledby="title desc">
  <title id="title">AI car setup checklist illustration</title><desc id="desc">A clipboard checklist with car keys and a yellow confirmation mark.</desc>
  <defs><linearGradient id="bg" x1="0" x2="1" y1="0" y2="1"><stop stop-color="#fff7d6"/><stop offset="1" stop-color="#fffdf8"/></linearGradient><filter id="shadow" x="-20%" y="-20%" width="140%" height="140%"><feDropShadow dx="0" dy="24" stdDeviation="28" flood-color="#11111a" flood-opacity=".18"/></filter></defs>
  <rect width="1200" height="850" rx="58" fill="url(#bg)"/>
  <circle cx="258" cy="588" r="74" fill="#f4c84b"/><path d="M225 587l25 26 52-68" fill="none" stroke="#fff" stroke-width="22" stroke-linecap="round" stroke-linejoin="round"/>
  <g filter="url(#shadow)"><rect x="360" y="128" width="360" height="590" rx="34" fill="#4f46e5"/><rect x="396" y="184" width="288" height="480" rx="20" fill="#fffdf8"/><rect x="466" y="106" width="148" height="86" rx="28" fill="#9ca3af"/><rect x="502" y="88" width="76" height="44" rx="20" fill="#d1d5db"/></g>
  <g stroke="#16a34a" stroke-width="16" stroke-linecap="round" stroke-linejoin="round" fill="none"><path d="M440 278l26 26 48-62"/><path d="M440 380l26 26 48-62"/><path d="M440 482l26 26 48-62"/><path d="M440 584l26 26 48-62"/></g>
  <g fill="#111827" opacity=".72"><rect x="546" y="260" width="96" height="18" rx="9"/><rect x="546" y="362" width="96" height="18" rx="9"/><rect x="546" y="464" width="96" height="18" rx="9"/><rect x="546" y="566" width="96" height="18" rx="9"/></g>
  <g transform="translate(780 288) rotate(24)" filter="url(#shadow)"><rect x="0" y="0" width="148" height="310" rx="48" fill="#111827"/><circle cx="74" cy="74" r="34" fill="#374151"/><rect x="58" y="142" width="32" height="82" rx="16" fill="#6b7280"/><circle cx="74" cy="250" r="18" fill="#f4c84b"/></g>
</svg>
