<svg xmlns="http://www.w3.org/2000/svg" width="1200" height="850" viewBox="0 0 1200 850" role="img" aria-labelledby="title desc">
  <title id="title">Compatibility map illustration</title><desc id="desc">A clean decision map connecting car platforms to AI assistants.</desc>
  <defs><linearGradient id="bg" x1="0" x2="1" y1="0" y2="1"><stop stop-color="#f5f3ff"/><stop offset="1" stop-color="#fffdf8"/></linearGradient><linearGradient id="node" x1="0" x2="1"><stop stop-color="#4f46e5"/><stop offset="1" stop-color="#7c3aed"/></linearGradient><filter id="shadow" x="-20%" y="-20%" width="140%" height="140%"><feDropShadow dx="0" dy="22" stdDeviation="28" flood-color="#11111a" flood-opacity=".16"/></filter></defs>
  <rect width="1200" height="850" rx="58" fill="url(#bg)"/>
  <g stroke="#d8d1ff" stroke-width="10" stroke-linecap="round" fill="none"><path d="M600 220C450 270 360 360 330 490"/><path d="M600 220c150 50 240 140 270 270"/><path d="M600 220v350"/><path d="M330 490c85 80 175 120 270 120"/><path d="M870 490c-85 80-175 120-270 120"/></g>
  <g filter="url(#shadow)"><circle cx="600" cy="220" r="94" fill="url(#node)"/><text x="600" y="212" text-anchor="middle" fill="#fff" font-family="Inter, Arial" font-size="28" font-weight="900">Your car</text><text x="600" y="250" text-anchor="middle" fill="#ddd6fe" font-family="Inter, Arial" font-size="22">platform</text></g>
  <g filter="url(#shadow)" font-family="Inter, Arial" font-weight="850"><rect x="168" y="420" width="260" height="144" rx="34" fill="#fff"/><text x="298" y="488" text-anchor="middle" fill="#111827" font-size="28">Google built-in</text><text x="298" y="526" text-anchor="middle" fill="#4f46e5" font-size="21">Vehicle-native</text><rect x="470" y="560" width="260" height="144" rx="34" fill="#fff"/><text x="600" y="628" text-anchor="middle" fill="#111827" font-size="28">CarPlay</text><text x="600" y="666" text-anchor="middle" fill="#4f46e5" font-size="21">iPhone path</text><rect x="772" y="420" width="260" height="144" rx="34" fill="#fff"/><text x="902" y="488" text-anchor="middle" fill="#111827" font-size="28">Android Auto</text><text x="902" y="526" text-anchor="middle" fill="#4f46e5" font-size="21">Phone projection</text></g>
  <path d="M600 97l14 40 42 14-42 14-14 40-14-40-42-14 42-14 14-40z" fill="#2dd4bf"/>
</svg>
