<svg xmlns="http://www.w3.org/2000/svg" width="1400" height="1050" viewBox="0 0 1400 1050" role="img" aria-labelledby="title desc">
  <title id="title">AI car assistant cockpit collage</title><desc id="desc">A premium editorial collage of car dashboard screens, a driver, CarPlay and Android Auto panels.</desc>
  <defs><linearGradient id="paper" x1="0" x2="1" y1="0" y2="1"><stop stop-color="#fffdf8"/><stop offset="1" stop-color="#f2efe7"/></linearGradient><linearGradient id="dash" x1="0" x2="1"><stop stop-color="#111827"/><stop offset="1" stop-color="#020617"/></linearGradient><linearGradient id="star" x1="0" x2="1"><stop stop-color="#2dd4bf"/><stop offset=".5" stop-color="#4f46e5"/><stop offset="1" stop-color="#a855f7"/></linearGradient><filter id="shadow" x="-20%" y="-20%" width="140%" height="140%"><feDropShadow dx="0" dy="30" stdDeviation="36" flood-color="#11111a" flood-opacity=".22"/></filter><clipPath id="clip1"><path d="M160 52h940l-76 400H86z"/></clipPath><clipPath id="clip2"><path d="M100 505h540l-58 410H52z"/></clipPath><clipPath id="clip3"><path d="M685 495h590l60 420H632z"/></clipPath></defs>
  <rect width="1400" height="1050" rx="64" fill="url(#paper)"/>
  <g filter="url(#shadow)"><g clip-path="url(#clip1)"><path d="M160 52h940l-76 400H86z" fill="#111827"/><rect x="222" y="108" width="766" height="286" rx="44" fill="#0f172a"/><rect x="310" y="155" width="450" height="202" rx="30" fill="#1e1b4b"/><path d="M405 194l20 56 59 20-59 20-20 56-20-56-59-20 59-20 20-56z" fill="url(#star)"/><text x="522" y="238" fill="#fffdf8" font-family="Inter, Arial" font-size="36" font-weight="850">Good morning</text><text x="522" y="290" fill="#dbeafe" font-family="Inter, Arial" font-size="34">How can I help</text><text x="522" y="336" fill="#dbeafe" font-family="Inter, Arial" font-size="34">you drive today?</text><circle cx="830" cy="250" r="70" fill="#374151"/><path d="M790 250h80" stroke="#9ca3af" stroke-width="16" stroke-linecap="round"/></g><path d="M160 52h940l-76 400H86z" fill="none" stroke="#fffdf8" stroke-width="16"/></g>
  <g filter="url(#shadow)"><g clip-path="url(#clip2)"><path d="M100 505h540l-58 410H52z" fill="#fef3c7"/><circle cx="355" cy="642" r="118" fill="#fde68a"/><circle cx="355" cy="642" r="84" fill="#f9fafb"/><path d="M308 606c60-88 150-48 155 70 3 88-142 110-197 36-31-42-2-80 42-106z" fill="#111827" opacity=".18"/><path d="M140 795c105-112 286-101 402 0v140H140z" fill="#111827" opacity=".12"/></g><path d="M100 505h540l-58 410H52z" fill="none" stroke="#fffdf8" stroke-width="16"/></g>
  <g filter="url(#shadow)"><g clip-path="url(#clip3)"><path d="M685 495h590l60 420H632z" fill="#111827"/><rect x="784" y="575" width="220" height="306" rx="42" fill="#020617"/><path d="M895 635l29 78 82 28-82 28-29 78-28-78-82-28 82-28 28-78z" fill="#38bdf8"/><text x="835" y="836" fill="#fff" font-family="Inter, Arial" font-size="26" font-weight="850">Android Auto</text><rect x="1040" y="575" width="190" height="150" rx="28" fill="#f8fafc"/><rect x="1076" y="612" width="46" height="46" rx="12" fill="#22c55e"/><rect x="1138" y="612" width="46" height="46" rx="12" fill="#3b82f6"/></g><path d="M685 495h590l60 420H632z" fill="none" stroke="#fffdf8" stroke-width="16"/></g>
  <circle cx="646" cy="803" r="92" fill="#f4c84b" stroke="#fffdf8" stroke-width="16"/><text x="646" y="786" text-anchor="middle" fill="#221a05" font-family="Inter, Arial" font-size="17" font-weight="950">PRACTICAL</text><text x="646" y="815" text-anchor="middle" fill="#221a05" font-family="Inter, Arial" font-size="17" font-weight="950">GUIDES</text><text x="646" y="844" text-anchor="middle" fill="#221a05" font-family="Inter, Arial" font-size="17" font-weight="950">REAL FIXES</text>
</svg>
