<svg xmlns="http://www.w3.org/2000/svg" viewBox="0 0 320 320" role="img" aria-labelledby="title desc">
  <title id="title">AI Car Assistant Guide logo option B</title>
  <desc id="desc">A shield-shaped route and cockpit assistant mark for an editorial guide brand.</desc>
  <rect width="320" height="320" rx="92" fill="#f8fbff"/>
  <path d="M160 44 254 79v70.7c0 59.3-37 101.7-94 126.3-57-24.7-94-67-94-126.3V79l94-35Z" fill="url(#shield)" stroke="#dbe6f3" stroke-width="8"/>
  <path d="M93 162c28.7-32.7 64.3-48.7 134-47.3" fill="none" stroke="#ffffff" stroke-width="18" stroke-linecap="round"/>
  <path d="M93 162c28.7-32.7 64.3-48.7 134-47.3" fill="none" stroke="#5eead4" stroke-width="6" stroke-linecap="round" stroke-dasharray="16 16"/>
  <path d="M109 202h102c9.7 0 17.7-7.7 17.7-17.3v-4.3c0-5.3-2.3-10.3-6.7-13.7L202.3 151a39 39 0 0 0-24-8.3H145a39 39 0 0 0-27.7 11.7l-17 17h-7.7a13.3 13.3 0 0 0-13.3 13.3v3.7c0 7.7 6.3 13.7 13.7 13.7h16Z" fill="#ffffff"/>
  <circle cx="118" cy="205" r="17" fill="#102033"/>
  <circle cx="202" cy="205" r="17" fill="#102033"/>
  <path d="m160 72 7.7 22.3L190 102l-22.3 7.7L160 132l-7.7-22.3L130 102l22.3-7.7L160 72Z" fill="#fff7ca"/>
  <defs>
    <linearGradient id="shield" x1="80" y1="58" x2="236" y2="257" gradientUnits="userSpaceOnUse">
      <stop stop-color="#2563eb"/>
      <stop offset=".55" stop-color="#0f766e"/>
      <stop offset="1" stop-color="#0f172a"/>
    </linearGradient>
  </defs>
</svg>
