<svg xmlns="http://www.w3.org/2000/svg" viewBox="0 0 320 320" role="img" aria-labelledby="title desc">
  <title id="title">AI Car Assistant Guide logo option A</title>
  <desc id="desc">A modern vehicle mark with an AI signal star on a teal and blue rounded square.</desc>
  <rect width="320" height="320" rx="92" fill="url(#bg)"/>
  <path d="M80 185h161.3c14 0 25.3-11.3 25.3-25.3v-8c0-8-3.7-15.3-10-20.3l-30.3-23.7A56.7 56.7 0 0 0 191.7 96h-54.3a53.3 53.3 0 0 0-37.3 15l-27 25.7H59a19 19 0 0 0-19 19v9.3a19.3 19.3 0 0 0 19.3 19.3H80Z" fill="#fff"/>
  <path d="M114 130.7a34 34 0 0 1 23.7-9.3H189a34 34 0 0 1 21 7.3l16.7 13H102.3l11.7-11Z" fill="#b9e5ff"/>
  <circle cx="100" cy="190" r="28" fill="#0d1f35"/>
  <circle cx="220" cy="190" r="28" fill="#0d1f35"/>
  <circle cx="100" cy="190" r="10.7" fill="#5eead4"/>
  <circle cx="220" cy="190" r="10.7" fill="#5eead4"/>
  <path d="M160 46.7 170.3 77l30.3 10.7-30.3 10.3L160 128.7 149.7 98l-30.3-10.3L149.7 77 160 46.7Z" fill="#fff7ca"/>
  <defs>
    <linearGradient id="bg" x1="50" y1="34" x2="273" y2="293" gradientUnits="userSpaceOnUse">
      <stop stop-color="#0f766e"/>
      <stop offset=".52" stop-color="#1f66d1"/>
      <stop offset="1" stop-color="#102033"/>
    </linearGradient>
  </defs>
</svg>
